<svg width="91" height="79" viewBox="0 0 91 79" fill="none" xmlns="http://www.w3.org/2000/svg">
<path d="M59.2632 63.9849C59.2632 63.6398 59.1444 63.2944 58.9077 62.9493C57.0116 60.6347 55.4885 58.6491 54.337 56.9927C55.0479 55.577 55.5897 54.2646 55.9611 53.057L63.8327 51.8139C64.1382 51.7787 64.4091 51.598 64.6459 51.2707C64.8826 50.9412 65 50.6052 65 50.26V40.6766C65 40.2973 64.8826 39.9602 64.6459 39.6672C64.4091 39.3742 64.1212 39.1922 63.7827 39.1242L56.0632 37.9327C55.69 36.7584 55.115 35.3418 54.3364 33.685C54.8435 32.9248 55.6062 31.8885 56.6221 30.577C57.6375 29.2645 58.3497 28.3325 58.7549 27.7799C58.9923 27.4347 59.1104 27.1063 59.1104 26.7959C59.1104 25.8633 56.6726 23.1007 51.7988 18.5077C51.4605 18.232 51.1049 18.0939 50.7312 18.0939C50.3259 18.0939 49.9874 18.2135 49.7152 18.4562L43.7227 23.0663C42.3351 22.3413 41.0655 21.8063 39.9144 21.4599L38.7463 13.5352C38.713 13.1899 38.5435 12.8873 38.2388 12.6286C37.934 12.3697 37.5955 12.24 37.2227 12.24H27.7779C26.9993 12.24 26.4915 12.6544 26.2546 13.4829C25.848 15.0717 25.459 17.7312 25.0865 21.4599C23.631 21.9432 22.3276 22.4959 21.1766 23.1174L15.3369 18.456C14.9984 18.2138 14.643 18.0937 14.2704 18.0937C13.6263 18.0937 12.2893 19.1123 10.2582 21.15C8.22676 23.1871 6.83797 24.7238 6.09377 25.7599C5.85649 26.0366 5.73856 26.3818 5.73856 26.7962C5.73856 27.1066 5.85631 27.4519 6.09377 27.8318C7.98931 30.1461 9.51257 32.1316 10.6639 33.7884C9.95315 35.205 9.41172 36.5165 9.03962 37.725L1.16806 38.9674C0.863017 39.0019 0.592479 39.183 0.355203 39.5104C0.11846 39.8392 0 40.1754 0 40.5204V50.1032C0 50.4833 0.11846 50.8197 0.355203 51.1127C0.592479 51.4069 0.879914 51.5708 1.21911 51.6051L8.93788 52.8482C9.34413 54.1599 9.93714 55.5763 10.7157 57.0956C10.1739 57.8559 9.37864 58.9097 8.32904 60.2557C7.27873 61.6031 6.58504 62.5182 6.24673 63.0012C6.00981 63.3465 5.89117 63.6756 5.89117 63.9847C5.89117 64.9185 8.32904 67.6802 13.2041 72.2736C13.5425 72.5491 13.8976 72.6863 14.2705 72.6863C14.7106 72.6863 15.0491 72.5666 15.2858 72.3244L21.278 67.715C22.6656 68.4402 23.9352 68.9747 25.0867 69.3201L26.2548 77.2456C26.2882 77.5906 26.4579 77.8936 26.7622 78.152C27.0669 78.4109 27.4054 78.54 27.778 78.54H37.2228C38.0019 78.54 38.5094 78.126 38.7465 77.2971C39.1527 75.6735 39.5417 72.9976 39.9145 69.2679C41.2683 68.8551 42.5715 68.3181 43.8244 67.663L49.6644 72.3244C50.0029 72.5666 50.3582 72.6863 50.7309 72.6863C51.3742 72.6863 52.7036 71.6594 54.7178 69.6037C56.7313 67.5505 58.1284 66.0038 58.9075 64.9682C59.1444 64.7273 59.2632 64.3996 59.2632 63.9849ZM41.6918 54.7662C39.1533 57.3552 36.0891 58.6502 32.5008 58.6502C28.9116 58.6502 25.8475 57.355 23.3089 54.7662C20.77 52.176 19.5004 49.0504 19.5004 45.3901C19.5004 41.73 20.77 38.6046 23.3089 36.0149C25.8475 33.425 28.9118 32.1304 32.5008 32.1304C36.0891 32.1304 39.1533 33.4248 41.6918 36.0149C44.2312 38.6046 45.5005 41.73 45.5005 45.3901C45.5005 49.0504 44.2314 52.176 41.6918 54.7662Z" fill="white"/>
<path d="M84.7911 11.825C84.4305 10.9687 84.0134 10.2011 83.5416 9.52152C84.9585 6.18558 85.6662 4.14817 85.6662 3.41009C85.6662 3.29251 85.6117 3.18873 85.4998 3.1C82.1656 1.03328 80.444 0 80.3328 0L80.083 0.0884207C78.9443 1.29963 77.6658 2.95263 76.2498 5.04883C75.6945 4.99019 75.2784 4.9604 75.0007 4.9604C74.7221 4.9604 74.306 4.99019 73.7501 5.04883C73.3626 4.42879 72.6395 3.43243 71.584 2.05958C70.5289 0.686424 69.8895 0.000155039 69.6672 0.000155039C69.6118 0.000155039 69.1953 0.236099 68.4171 0.708917C67.6396 1.18189 66.8201 1.68356 65.9589 2.21517C65.097 2.74694 64.612 3.04198 64.5007 3.10062C64.3887 3.1892 64.3337 3.29251 64.3337 3.41071C64.3337 4.1488 65.0419 6.18635 66.4584 9.52245C65.9871 10.2019 65.5698 10.9693 65.2089 11.8256C61.0696 12.2681 59 12.7256 59 13.1981V19.3986C59 19.8708 61.0696 20.3287 65.2089 20.7711C65.5415 21.568 65.9586 22.336 66.4584 23.0743C65.0419 26.411 64.3337 28.4476 64.3337 29.186C64.3337 29.3034 64.3887 29.4072 64.5007 29.4958C67.8888 31.592 69.6118 32.6401 69.6672 32.6401C69.8894 32.6401 70.5287 31.9466 71.584 30.5587C72.6393 29.1708 73.3616 28.1674 73.7501 27.5471C74.3055 27.6057 74.7221 27.6357 75.0007 27.6357C75.2782 27.6357 75.6945 27.6057 76.2498 27.5471C76.6378 28.1674 77.3605 29.1706 78.4158 30.5587C79.4711 31.9466 80.1099 32.6401 80.3328 32.6401C80.3882 32.6401 82.1113 31.592 85.4998 29.4958C85.6117 29.4072 85.6662 29.3039 85.6662 29.186C85.6662 28.4476 84.9576 26.411 83.5416 23.0743C84.0415 22.336 84.4579 21.5685 84.7911 20.7711C88.9303 20.3286 91 19.8708 91 19.3986V13.1981C91 12.7256 88.9303 12.268 84.7911 11.825ZM78.7699 20.3062C77.7296 21.4136 76.472 21.9673 74.9996 21.9673C73.5268 21.9673 72.2698 21.4136 71.229 20.3062C70.1871 19.1994 69.6656 17.8632 69.6656 16.2983C69.6656 14.763 70.1941 13.4341 71.2498 12.312C72.305 11.19 73.5553 10.629 74.9995 10.629C76.4434 10.629 77.6944 11.1907 78.7502 12.312C79.805 13.4339 80.3335 14.763 80.3335 16.2983C80.3326 17.8632 79.8122 19.1994 78.7699 20.3062Z" fill="white"/>
</svg>
