<svg width="67" height="72" viewBox="0 0 67 72" fill="none" xmlns="http://www.w3.org/2000/svg">
<path d="M9.65462 34.869C9.65769 21.6112 20.1923 10.8628 33.1902 10.8628C36.5877 10.8628 39.7867 11.6503 42.7006 12.9738L38.6273 17.104L55.2538 17.1623L55.3019 0.200195L49.8978 5.67552C44.9895 2.73722 39.2971 1.01524 33.1902 1.01524C14.8604 1.01524 0 16.1728 0 34.8692C0 42.6824 2.61944 49.8551 6.97502 55.5847L13.8659 48.556C11.2196 44.6677 9.65462 39.9553 9.65462 34.869Z" fill="white"/>
<path d="M60.9402 16.7732L53.4875 23.1738C55.8005 27.2764 56.963 32.1022 56.5395 37.17C55.4341 50.3818 44.0372 60.1712 31.0844 59.0406C29.2941 58.8843 27.5848 58.486 25.9447 57.9498L29.9128 52.9279L13.3823 54.7357L15.1576 71.5999L19.6063 65.9713C22.8956 67.4818 26.4523 68.5266 30.2551 68.8576C48.5188 70.4539 64.5928 56.6415 66.1547 38.0155C66.8129 30.2333 64.8002 22.8583 60.9402 16.7732Z" fill="white"/>
</svg>
