<svg width="48" height="91" viewBox="0 0 48 91" fill="none" xmlns="http://www.w3.org/2000/svg">
<path d="M0.0787949 20.8013C0.0350577 21.3574 0.0126088 21.9137 0.0191887 22.3328C-0.00113164 22.5017 -1.35505 40.1612 23.0154 47.2316C44.3201 53.4118 43.372 67.7289 43.3143 68.4859C43.3143 68.7684 43.3079 69.0526 43.294 69.3371C42.8251 79.432 34.1609 87.3412 23.5691 87.3412C12.6813 87.3412 3.82277 78.8829 3.82277 68.4859C3.82277 62.0408 7.21705 56.1077 12.9027 52.6142L10.8408 49.5542C4.05984 53.7195 0.0116409 60.7969 0.0116409 68.4859C0.0118344 80.889 10.5794 90.9803 23.5691 90.9803C36.2051 90.9803 46.5422 81.5448 47.1013 69.5004C47.1162 69.1646 47.1245 68.8288 47.1181 68.6476C47.12 68.6298 47.1367 68.4166 47.1367 68.0432C47.1367 64.868 45.9308 50.0765 24.1226 43.7488C2.81798 37.5686 3.76704 23.2479 3.82277 22.4945C3.82277 22.0164 3.84232 21.5404 3.8787 21.0711C4.64159 11.2959 13.2899 3.63916 23.5691 3.63916C34.457 3.63916 43.3145 12.0974 43.3145 22.4945C43.3145 28.9395 39.9204 34.8712 34.2346 38.3645L36.2965 41.4243C43.0775 37.2592 47.1257 30.1833 47.1257 22.4945C47.1257 10.0914 36.5579 0 23.5693 0C11.3063 0 0.987792 9.13725 0.0787949 20.8013Z" fill="white"/>
</svg>
